<svg width="194" height="194" viewBox="0 0 194 194" fill="none" xmlns="http://www.w3.org/2000/svg">
    <path d="M128 129.72C134.545 130.255 141.129 129.412 147.328 127.245C147.565 124.328 146.971 121.403 145.615 118.81C144.259 116.216 142.196 114.06 139.665 112.59C137.135 111.119 134.239 110.396 131.315 110.502C128.39 110.609 125.555 111.541 123.138 113.192M127.995 129.715L128 129.875C128 131.038 127.938 132.185 127.809 133.316C118.433 138.695 107.809 141.517 97 141.5C85.7883 141.5 75.2638 138.524 66.1911 133.316C66.0583 132.12 65.9945 130.918 66 129.715M128 129.715C127.98 123.859 126.294 118.13 123.138 113.197M123.138 113.197C120.337 108.804 116.474 105.189 111.905 102.685C107.336 100.182 102.21 98.8715 97 98.875C91.7911 98.8723 86.6657 100.183 82.0979 102.687C77.5301 105.19 73.6673 108.805 70.867 113.197M70.867 113.197C68.4501 111.548 65.6158 110.617 62.6918 110.511C59.7679 110.405 56.8737 111.129 54.344 112.599C51.8142 114.069 49.7522 116.225 48.3962 118.818C47.0403 121.41 46.4459 124.334 46.6818 127.25C52.8762 129.429 59.4622 130.269 66.0051 129.715M70.8618 113.197C67.7082 118.13 66.0237 123.86 66.0051 129.715M112.5 67.875C112.5 71.9859 110.867 75.9283 107.96 78.8352C105.053 81.742 101.111 83.375 97 83.375C92.8891 83.375 88.9466 81.742 86.0398 78.8352C83.133 75.9283 81.5 71.9859 81.5 67.875C81.5 63.7641 83.133 59.8217 86.0398 56.9148C88.9466 54.008 92.8891 52.375 97 52.375C101.111 52.375 105.053 54.008 107.96 56.9148C110.867 59.8217 112.5 63.7641 112.5 67.875V67.875ZM143.5 83.375C143.5 84.9016 143.199 86.4133 142.615 87.8237C142.031 89.2341 141.175 90.5156 140.095 91.5951C139.016 92.6746 137.734 93.5309 136.324 94.1151C134.913 94.6993 133.402 95 131.875 95C130.348 95 128.837 94.6993 127.426 94.1151C126.016 93.5309 124.734 92.6746 123.655 91.5951C122.575 90.5156 121.719 89.2341 121.135 87.8237C120.551 86.4133 120.25 84.9016 120.25 83.375C120.25 80.2919 121.475 77.335 123.655 75.1549C125.835 72.9748 128.792 71.75 131.875 71.75C134.958 71.75 137.915 72.9748 140.095 75.1549C142.275 77.335 143.5 80.2919 143.5 83.375V83.375ZM73.75 83.375C73.75 84.9016 73.4493 86.4133 72.8651 87.8237C72.2809 89.2341 71.4246 90.5156 70.3451 91.5951C69.2656 92.6746 67.9841 93.5309 66.5737 94.1151C65.1633 94.6993 63.6516 95 62.125 95C60.5983 95 59.0867 94.6993 57.6763 94.1151C56.2659 93.5309 54.9843 92.6746 53.9048 91.5951C52.8254 90.5156 51.9691 89.2341 51.3849 87.8237C50.8007 86.4133 50.5 84.9016 50.5 83.375C50.5 80.2919 51.7247 77.335 53.9048 75.1549C56.085 72.9748 59.0418 71.75 62.125 71.75C65.2081 71.75 68.165 72.9748 70.3451 75.1549C72.5252 77.335 73.75 80.2919 73.75 83.375V83.375Z" stroke="white" stroke-width="5" stroke-linecap="round" stroke-linejoin="round"/>
    <path d="M148.442 148.442C162.086 134.799 169.75 116.295 169.75 97C169.75 77.7054 162.086 59.201 148.442 45.5577C134.799 31.9143 116.295 24.2496 97 24.2496C77.7053 24.2496 59.201 31.9143 45.5576 45.5577M148.442 148.442C134.799 162.086 116.295 169.75 97 169.75C77.7053 169.75 59.201 162.086 45.5576 148.442C31.9143 134.799 24.2495 116.295 24.2495 97C24.2495 77.7054 31.9143 59.201 45.5576 45.5577M148.442 148.442L45.5576 45.5577" stroke="white" stroke-width="5" stroke-linecap="round" stroke-linejoin="round"/>
</svg>